PathFileType	4	(X/Y/Z)	C:/Users/beibeiliu/ov580/test_trc/User3\sequence.28_training_dense_right.trc
DataRate	CameraRate	NumFrames	NumMarkers	Units	OrigDataRate	OrigDataStartFrame	OrigNumFrames
120	120	14	19	mm	120	221	252
Frame#	Time	ThumbCMC			ThumbMCP			ThumbIP			ThumbTip			IndexMCP			IndexPIP			IndexTip			MiddleMCP			MiddlePIP			MiddleTip			RingMCP			RingPIP			RingTip			PinkyMCP			PinkyPIP			PinkyTip			BackHand1			BackHand2			BackHand3	
		X0	Y0	Z0	X1	Y1	Z1	X2	Y2	Z2	X3	Y3	Z3	X4	Y4	Z4	X5	Y5	Z5	X6	Y6	Z6	X7	Y7	Z7	X8	Y8	Z8	X9	Y9	Z9	X10	Y10	Z10	X11	Y11	Z11	X12	Y12	Z12	X13	Y13	Z13	X14	Y14	Z14	X15	Y15	Z15	X16	Y16	Z16	X17	Y17	Z17	X18	Y18	Z18	
220	1.83333	144.438	14.0655	31.706	108.495	19.5557	19.9262	77.6541	11.5766	15.5305	64.0381	-13.8363	23.253	89.6323	-8.09033	-15.8675	74.823	9.18641	5.9599	105.558	6.18643	17.6587	78.6824	-24.0881	-1.43841	69.2246	-3.17795	23.7952	101.953	-9.2323	41.1387	83.7251	-33.1297	19.9344	82.5465	-16.2808	47.6325	116.13	-17.262	48.9447	84.9022	-40.2871	34.2245	89.3025	-25.6174	59.0118	117.29	-29.7036	58.2285	133.733	-54.4167	24.0732	158.359	-46.9643	46.9871	152.247	-23.3836	17.1702	
221	1.84167	148.344	14.8853	29.7188	114.995	27.9708	19.9595	85.8636	20.1595	14.9821	67.1782	-3.63387	20.856	96.6196	-5.41772	-18.3472	80.4039	12.1578	0.17819	110.756	11.3551	17.1133	87.43	-19.4539	-4.2864	78.8585	4.99637	19.1568	112.001	-4.99192	34.4146	87.7752	-28.7163	16.991	87.4844	-9.56722	43.0505	118.986	-11.6401	45.1266	84.9778	-38.6043	32.9208	90.6317	-19.0719	50.9239	118.243	-29.3792	58.5249	138.984	-51.8127	23.1744	160.393	-45.52	46.6109	160.445	-23.9029	18.6678	
222	1.85	153.3	14.9295	27.5537	124.699	28.5656	17.2796	90.0836	23.831	7.49318	72.7882	5.35242	15.829	104.195	-0.898586	-21.8037	88.3402	16.8352	-2.04962	114.491	14.8546	14.9102	94.7103	-14.4807	-9.76334	84.5118	9.20402	13.9815	117.201	-0.0463774	29.8439	89.0917	-20.9285	11.4139	89.1738	-4.94394	35.6073	123.184	-11.6296	41.7563	86.2647	-30.1724	28.4148	95.5705	-13.877	48.0383	120.826	-22.4155	52.5334	139.116	-52.1815	22.0242	158.675	-47.1	43.8909	162.633	-21.7982	15.4384	
223	1.85833	157.803	12.2864	27.5528	128.091	28.7956	10.7116	101.397	26.0126	6.01926	77.3206	3.61696	11.1533	113.058	0.70532	-26.4385	95.9803	23.6034	-11.7615	120.125	14.6731	12.2218	97.4657	-9.63634	-14.9406	88.9651	10.0794	9.58738	119.576	0.408615	25.3817	90.0274	-18.9339	6.36582	92.4649	0.439011	28.8273	124.202	-9.07733	38.5481	92.7454	-31.3095	21.2252	97.8636	-9.87047	42.1174	123.205	-26.3534	48.618	142.709	-49.5338	18.2807	161.205	-48.629	42.162	168.837	-24.2467	16.8882	
224	1.86667	164.493	13.5152	25.1589	134.072	26.6464	9.00228	105.673	25.1087	1.77323	83.8654	8.01173	7.54079	117.79	-0.475613	-29.9782	100.875	21.6135	-16.8374	124.054	18.0206	8.77585	103.988	-10.8369	-21.0708	91.2502	9.44676	3.30977	123.428	0.929584	21.4268	97.2983	-23.3043	0.534367	92.1731	0.346528	22.9664	124.19	-5.66157	32.7021	93.4738	-27.5612	16.556	98.5172	-7.90311	35.5393	122.429	-21.4108	45.416	141.505	-50.8637	16.2376	159.974	-48.3463	43.2282	170.812	-27.1676	16.8566	
225	1.875	166.881	12.3392	23.5224	139.033	29.0565	9.25624	108.577	24.7124	-1.60379	88.23	7.03236	4.91129	122.987	-4.40592	-33.4338	105.55	23.1771	-23.7003	120.195	19.2147	5.18998	107.556	-13.022	-25.0471	95.6431	11.0149	-7.69744	122.574	2.43101	16.7476	97.2207	-21.5062	-4.99808	93.9825	0.69251	12.5356	120.532	-7.23042	32.6098	97.1898	-26.1155	10.4755	95.9979	-11.0284	33.6999	125.716	-23.0797	42.0694	145.583	-48.1323	13.5378	161.162	-51.2563	43.1214	175.66	-27.152	16.4855	
226	1.88333	169.75	9.21126	26.8539	139.006	27.5751	5.55231	111.647	25.6364	-2.46249	88.6609	5.10847	1.51252	131.844	-5.27285	-36.8301	105.236	15.7955	-32.0216	114.753	21.7616	-2.26181	109.197	-18.2041	-30.5551	95.6347	7.70479	-17.6909	118.985	1.73829	11.9476	100.99	-22.5934	-10.9787	92.0423	-3.51096	6.15547	118.537	-4.472	26.0465	100.262	-32.5214	7.83435	97.0036	-10.8484	24.8132	121.683	-19.3715	40.3249	147.217	-53.8085	12.5367	166.465	-49.7374	41.8338	176.181	-26.658	14.7525	
227	1.89167	171.598	7.74516	25.374	142.74	28.0264	5.62977	113.371	21.0229	-4.55487	95.5181	6.23723	-0.0779402	130.327	-10.9734	-40.9035	106.266	12.3298	-40.0697	110.554	22.6708	-11.6798	114.447	-24.1124	-36.371	94.8688	1.05133	-30.3864	110.203	5.32221	4.29556	103.854	-26.0357	-15.231	92.1755	-4.33189	-0.0316624	118.456	-6.66271	24.655	101.191	-32.7931	4.00145	97.2903	-11.9825	22.0697	120.062	-22.0329	38.104	150.377	-53.0048	11.8596	169.319	-51.6772	40.5765	178.5	-30.3907	16.2247	
228	1.9	172.595	10.2213	18.9969	145.54	27.1688	4.07817	115.492	19.6762	-7.11209	93.9518	3.86967	-3.65812	136.249	-16.4265	-40.9964	110.978	0.389534	-52.6169	104.879	24.5988	-25.4258	122.258	-32.0066	-37.7508	97.0744	-10.3419	-43.9024	100.505	9.7656	-9.16299	110.345	-31.0526	-17.4094	90.6939	-9.34304	-3.26572	115.201	-4.00233	20.633	101.295	-38.9782	3.78195	93.3447	-16.1567	15.2106	119.768	-16.5027	34.6395	154.861	-53.9778	12.6418	170.669	-52.6652	38.3588	181.05	-28.9775	9.77851	
229	1.90833	174.784	7.86775	21.6679	147.801	24.0732	6.14817	117.885	22.4969	-8.47903	95.524	9.50511	-6.82226	140.445	-20.0633	-43.3476	115.406	-6.56282	-58.692	95.6025	17.7737	-40.294	129.657	-33.5753	-40.8157	97.9974	-17.5823	-52.655	87.9723	8.55209	-26.9975	109.143	-32.6425	-21.7369	90.452	-10.8986	-9.12186	105.137	-2.17887	16.5143	100.592	-38.0245	0.940268	97.7178	-14.3767	13.0564	119.182	-16.556	33.8131	151.656	-56.8127	11.0085	172.254	-54.4219	40.5851	183.022	-31.5255	11.5761	
230	1.91667	172.478	2.21934	20.8793	145.573	20.1858	5.10849	118.827	22.9885	-6.68967	94.6035	8.99873	-9.07376	144.158	-20.8421	-44.6693	121.235	-11.6278	-61.4624	99.0887	10.6463	-60.2734	129.728	-40.2312	-39.65	103.468	-24.8042	-60.2087	82.3114	-0.166276	-50.809	112.724	-35.6007	-20.1437	89.6103	-13.5707	-11.2543	104.187	1.59857	14.2378	102.541	-39.0156	0.584792	94.875	-16.5276	13.6721	113.428	-13.6118	31.5898	153.822	-59.005	15.7936	170.439	-58.6649	42.9245	182.96	-32.1242	13.8141	
231	1.925	174.753	5.18673	20.6327	145.694	22.4291	4.16554	120.213	28.6695	-8.24299	95.0509	17.1359	-12.4738	146.317	-19.8379	-46.3498	123.166	-8.63724	-67.9226	98.8093	4.7111	-71.6533	128.338	-42.5748	-39.7683	104.344	-31.5028	-62.2488	78.7664	-13.0033	-63.4044	111.725	-37.0236	-19.4513	89.3253	-17.3936	-15.7488	94.1896	0.18988	11.7936	101.361	-44.8375	3.37959	92.9687	-17.964	13.7846	112.441	-7.59829	30.081	154.775	-58.8781	13.8469	169.931	-59.8499	38.8669	180.418	-36.4828	12.413	
232	1.93333	174.381	1.8346	22.6537	146.423	19.7658	7.6952	119.286	28.3494	-9.95448	94.8468	27.4443	-16.1417	144.058	-21.6656	-48.6891	125.744	-11.9435	-68.7369	105.76	-1.28047	-80.4308	126.766	-44.0444	-42.7845	107.89	-37.8034	-62.2548	75.1597	-20.9702	-73.5266	106.889	-40.7525	-18.6715	86.725	-16.2679	-15.1954	89.2228	4.18	8.07884	102.302	-44.0725	1.46646	91.8377	-18.228	10.564	106.321	-6.6802	26.9362	151.854	-60.86	11.6296	171.14	-60.4466	42.4994	184.046	-33.324	11.7682	
233	1.94167	173.72	2.40677	21.3301	146.958	21.7235	5.9339	121.173	31.1164	-11.1234	101.142	37.7849	-17.7529	146.402	-20.5295	-46.0329	129.027	-13.2711	-72.1122	112.75	-6.04677	-84.7344	131.142	-42.5379	-43.0535	109.682	-38.9127	-63.4927	80.4742	-28.3252	-81.1375	108.85	-42.0423	-18.5919	84.504	-24.8262	-16.2053	79.7954	0.986298	6.22176	103.517	-47.6777	4.95622	89.0625	-21.0496	12.1575	100.399	-6.11008	29.2322	155.721	-61.219	14.3709	172.06	-59.9154	36.2718	181.109	-36.2705	12.1623	
